# xmcd CD database file
#
# Track frame offsets:
#	150
#	62248
#	109941
#	141830
#	166818
#	206256
#	235516
#	266926
#
# Disc length: 4169 seconds
#
# Revision: 14
# Processed by: cddbd v1.5.2PL0 Copyright (c) Steve Scherf et al.
# Submitted via: CDex 1.51
#
DISCID=6e104708
DTITLE=Keith Jarrett - Paris | London: Testament [ECM, Disc 1]
DYEAR=2009
DGENRE=Jazz
TTITLE0=Part I
TTITLE1=Part II
TTITLE2=Part III
TTITLE3=Part IV
TTITLE4=Part V
TTITLE5=Part VI
TTITLE6=Part VII
TTITLE7=Part VIII
EXTD=YEAR: 2009
EXTT0=
EXTT1=
EXTT2=
EXTT3=
EXTT4=
EXTT5=
EXTT6=
EXTT7=
PLAYORDER=
